# xmcd
#
# Track frame offsets:
#	150
#	13665
#	30728
#	44213
#	57361
#	73531
#
# Disc length: 1175 seconds
#
# Revision: 1
# Processed by: cddbd v1.5.2PL0 Copyright (c) Steve Scherf et al.
# Submitted via: audiograbber 1.83.01
#
DISCID=52049506
DTITLE=Taylor Swift - Beautiful Eyes
DYEAR=2008
DGENRE=Country
TTITLE0=Beautiful Eyes
TTITLE1=Should've Said No (Alternate Version)
TTITLE2=Teardrops On My Guitar (Acoustic Version)
TTITLE3=Picture To Burn (Radio Edit)
TTITLE4=I'm Only Me When I'm With You
TTITLE5=I Heart ?
EXTD=
EXTT0=
EXTT1=
EXTT2=
EXTT3=
EXTT4=
EXTT5=
PLAYORDER=
